<svg width="728" height="233" viewBox="0 0 728 233" fill="none" xmlns="http://www.w3.org/2000/svg">
<rect x="8.06641" width="720.05" height="204" rx="20" transform="rotate(2.26616 8.06641 0)" fill="#007F70"/>
<g filter="url(#filter0_i_256_78)">
<circle cx="49.3802" cy="39.9433" r="15" transform="rotate(0.257874 49.3802 39.9433)" fill="#071DAD"/>
</g>
<path d="M88.2544 101.027C87.0064 101.026 86.0465 100.69 85.3748 100.018C84.7031 99.3452 84.3675 98.3851 84.368 97.1371L84.3785 71.0731C84.379 69.8251 84.7154 68.8652 85.3877 68.1935C86.06 67.5218 87.0201 67.1862 88.2681 67.1867L105.02 67.1935C105.98 67.1939 106.7 67.4502 107.18 67.9624C107.692 68.4426 107.947 69.1467 107.947 70.0747C107.947 71.0347 107.69 71.7706 107.178 72.2824C106.698 72.7622 105.978 73.0019 105.018 73.0015L91.4818 72.996L91.4785 80.916L103.911 80.921C104.903 80.9214 105.638 81.1777 106.118 81.6899C106.63 82.1701 106.886 82.8902 106.885 83.8502C106.885 84.8102 106.629 85.5461 106.116 86.0579C105.636 86.5377 104.9 86.7774 103.908 86.777L91.4762 86.772L91.4727 95.22L105.009 95.2255C105.969 95.2259 106.689 95.4822 107.168 95.9944C107.68 96.4746 107.936 97.1787 107.936 98.1067C107.935 99.0667 107.679 99.8026 107.167 100.314C106.686 100.794 105.966 101.034 105.006 101.033L88.2544 101.027ZM117.317 101.038C116.069 101.038 115.109 100.702 114.437 100.029C113.766 99.357 113.43 98.3969 113.43 97.1489L113.441 71.0849C113.442 69.8369 113.778 68.877 114.45 68.2053C115.122 67.5336 116.083 67.198 117.331 67.1985L126.691 67.2023C132.483 67.2046 136.946 68.6784 140.081 71.6237C143.248 74.537 144.83 78.6976 144.828 84.1056C144.827 86.8256 144.41 89.2415 143.577 91.3531C142.776 93.4328 141.607 95.1923 140.071 96.6317C138.534 98.0711 136.646 99.1743 134.405 99.9414C132.165 100.676 129.589 101.043 126.677 101.042L117.317 101.038ZM120.871 94.9439L126.247 94.9461C128.071 94.9468 129.655 94.7235 131 94.276C132.344 93.8286 133.464 93.157 134.36 92.2614C135.257 91.3658 135.929 90.246 136.378 88.9022C136.826 87.5264 137.051 85.9265 137.052 84.1025C137.053 80.4545 136.142 77.7501 134.319 75.9894C132.528 74.1966 129.84 73.2996 126.256 73.2981L120.88 73.2959L120.871 94.9439ZM165.097 101.586C162.697 101.585 160.569 101.28 158.713 100.671C156.889 100.031 155.354 99.1019 154.106 97.8854C152.859 96.6689 151.915 95.1485 151.276 93.3243C150.669 91.468 150.366 89.3239 150.367 86.8919L150.373 70.5719C150.374 69.3239 150.694 68.38 151.334 67.7403C151.975 67.1005 152.903 66.7809 154.119 66.7814C155.303 66.7819 156.215 67.1023 156.854 67.7425C157.494 68.3828 157.814 69.3269 157.813 70.5749L157.806 86.9429C157.805 89.6949 158.429 91.7752 159.676 93.1837C160.923 94.5602 162.731 95.2489 165.099 95.2499C167.467 95.2508 169.259 94.5636 170.476 93.188C171.725 91.7806 172.349 89.7008 172.35 86.9488L172.357 70.5808C172.358 69.3328 172.678 68.3889 173.318 67.7492C173.959 67.1095 174.871 66.7898 176.055 66.7903C177.239 66.7908 178.135 67.1111 178.742 67.7514C179.382 68.3917 179.702 69.3358 179.701 70.5838L179.695 86.9038C179.693 90.1358 179.132 92.8556 178.011 95.0631C176.922 97.2387 175.29 98.87 173.113 99.9571C170.969 101.044 168.297 101.587 165.097 101.586ZM202.688 101.601C199.04 101.6 195.921 100.878 193.329 99.4373C190.738 97.9963 188.739 95.9795 187.332 93.3869C185.957 90.7623 185.27 87.674 185.272 84.122C185.273 81.466 185.658 79.0822 186.426 76.9705C187.227 74.8268 188.38 73.0033 189.885 71.4999C191.389 69.9645 193.214 68.7813 195.358 67.9501C197.534 67.119 199.983 66.704 202.703 66.7051C204.303 66.7058 205.918 66.9144 207.55 67.3311C209.214 67.7158 210.654 68.2763 211.87 69.0128C212.669 69.4612 213.213 70.0214 213.501 70.6935C213.789 71.3656 213.868 72.0377 213.74 72.7096C213.644 73.3816 213.372 73.9574 212.923 74.4373C212.507 74.9171 211.979 75.2209 211.339 75.3486C210.699 75.4764 209.979 75.3321 209.179 74.9157C208.219 74.3394 207.212 73.9229 206.156 73.6665C205.1 73.4101 204.028 73.2817 202.94 73.2812C200.796 73.2803 198.988 73.7116 197.515 74.575C196.075 75.4064 194.987 76.622 194.25 78.2217C193.513 79.8214 193.144 81.7892 193.144 84.1252C193.143 86.4292 193.51 88.3974 194.245 90.0297C194.98 91.662 196.068 92.9104 197.508 93.775C198.979 94.6076 200.787 95.0243 202.931 95.0252C203.955 95.0256 204.995 94.8981 206.051 94.6425C207.139 94.3869 208.18 93.9873 209.172 93.4437C210.004 93.0281 210.74 92.8844 211.38 93.0126C212.052 93.1089 212.596 93.3971 213.012 93.8773C213.459 94.3255 213.731 94.8696 213.827 95.5096C213.955 96.1497 213.89 96.7897 213.634 97.4296C213.378 98.0695 212.898 98.6133 212.193 99.061C211.009 99.8605 209.553 100.484 207.825 100.931C206.097 101.379 204.384 101.602 202.688 101.601ZM219.436 101.512C218.54 101.512 217.804 101.303 217.228 100.887C216.684 100.471 216.332 99.9107 216.173 99.2066C216.045 98.5025 216.189 97.7186 216.605 96.8548L228.904 69.9318C229.417 68.844 230.025 68.0602 230.729 67.5805C231.434 67.0688 232.25 66.8131 233.178 66.8135C234.106 66.8139 234.922 67.0702 235.625 67.5825C236.329 68.0628 236.921 68.847 237.4 69.9352L249.773 96.8682C250.189 97.7324 250.333 98.5325 250.204 99.2684C250.108 99.9724 249.788 100.532 249.244 100.948C248.7 101.332 247.996 101.524 247.132 101.523C246.044 101.523 245.196 101.266 244.588 100.754C244.012 100.242 243.5 99.4417 243.053 98.3535L240.176 91.6803L243.151 93.7455L223.135 93.7374L226.112 91.6746L223.277 98.3455C222.796 99.4653 222.284 100.281 221.74 100.793C221.228 101.273 220.46 101.512 219.436 101.512ZM233.078 75.1654L226.928 89.803L225.633 87.9304L240.657 87.9365L239.36 89.808L233.174 75.1655L233.078 75.1654ZM270.235 101.629C266.587 101.627 263.468 100.906 260.876 99.4647C258.285 98.0237 256.286 96.0069 254.879 93.4143C253.504 90.7897 252.817 87.7015 252.818 84.1495C252.819 81.4935 253.204 79.1096 253.973 76.9979C254.774 74.8543 255.927 73.0307 257.431 71.5273C258.936 69.9919 260.761 68.8087 262.905 67.9775C265.081 67.1464 267.529 66.7314 270.249 66.7325C271.849 66.7332 273.465 66.9418 275.097 67.3585C276.761 67.7432 278.201 68.3038 279.417 69.0403C280.216 69.4886 280.76 70.0488 281.048 70.7209C281.336 71.393 281.415 72.0651 281.287 72.737C281.191 73.409 280.919 73.9849 280.47 74.4647C280.054 74.9445 279.526 75.2483 278.886 75.376C278.246 75.5038 277.526 75.3595 276.726 74.9432C275.766 74.3668 274.759 73.9504 273.703 73.6939C272.647 73.4375 271.575 73.3091 270.487 73.3086C268.343 73.3078 266.535 73.739 265.062 74.6024C263.622 75.4338 262.533 76.6494 261.797 78.2491C261.06 79.8488 260.691 81.8167 260.69 84.1527C260.689 86.4567 261.057 88.4248 261.792 90.0571C262.527 91.6894 263.615 92.9378 265.054 93.8024C266.526 94.635 268.334 95.0518 270.478 95.0526C271.502 95.053 272.542 94.9255 273.598 94.6699C274.686 94.4143 275.726 94.0148 276.719 93.4712C277.551 93.0555 278.287 92.9118 278.927 93.0401C279.599 93.1363 280.143 93.4245 280.558 93.9047C281.006 94.3529 281.278 94.897 281.374 95.537C281.501 96.1771 281.437 96.8171 281.181 97.457C280.925 98.0969 280.444 98.6407 279.74 99.0884C278.556 99.8879 277.1 100.511 275.372 100.959C273.643 101.406 271.931 101.629 270.235 101.629ZM269.272 110.556C268.664 110.556 268.008 110.508 267.304 110.411C266.632 110.347 266.008 110.219 265.432 110.027C264.888 109.866 264.504 109.578 264.28 109.162C264.088 108.746 264.041 108.33 264.137 107.914C264.233 107.498 264.457 107.178 264.809 106.954C265.193 106.73 265.673 106.715 266.249 106.907C266.665 107.035 267.065 107.131 267.449 107.195C267.833 107.26 268.217 107.292 268.601 107.292C269.433 107.292 270.057 107.18 270.473 106.957C270.889 106.765 271.097 106.461 271.097 106.045C271.098 105.725 270.954 105.485 270.666 105.325C270.41 105.165 269.962 105.084 269.322 105.084C269.098 105.084 268.874 105.084 268.65 105.084C268.426 105.116 268.202 105.148 267.978 105.18C267.754 105.244 267.546 105.259 267.354 105.227C267.194 105.195 267.034 105.115 266.874 104.987C266.746 104.859 266.666 104.683 266.634 104.459C266.602 104.267 266.602 104.011 266.634 103.691L267.164 100.139L270.812 100.141L270.186 103.789L268.411 103.116C268.795 102.988 269.179 102.892 269.563 102.828C269.947 102.764 270.299 102.733 270.619 102.733C272.027 102.733 273.147 103.038 273.978 103.646C274.81 104.286 275.226 105.167 275.225 106.287C275.225 107.567 274.664 108.59 273.544 109.358C272.456 110.157 271.032 110.557 269.272 110.556ZM286.982 101.539C286.086 101.539 285.351 101.331 284.775 100.914C284.231 100.498 283.879 99.9381 283.719 99.234C283.592 98.53 283.736 97.746 284.152 96.8822L296.451 69.9592C296.964 68.8714 297.572 68.0876 298.276 67.6079C298.98 67.0962 299.797 66.8405 300.725 66.8409C301.653 66.8413 302.468 67.0976 303.172 67.6099C303.876 68.0902 304.468 68.8744 304.947 69.9626L317.32 96.8956C317.736 97.7598 317.88 98.5599 317.751 99.2958C317.655 99.9998 317.335 100.56 316.791 100.975C316.247 101.359 315.542 101.551 314.678 101.551C313.59 101.55 312.743 101.294 312.135 100.782C311.559 100.269 311.047 99.4691 310.6 98.3809L307.722 91.7077L310.698 93.7729L290.682 93.7648L293.658 91.702L290.824 98.3729C290.343 99.4927 289.831 100.308 289.287 100.82C288.775 101.3 288.006 101.54 286.982 101.539ZM300.625 75.1929L294.475 89.8304L293.18 87.9578L308.204 87.9639L306.907 89.8354L300.721 75.1929L300.625 75.1929ZM291.509 64.4852C290.901 64.4529 290.438 64.2607 290.118 63.9086C289.798 63.5565 289.702 63.0604 289.83 62.4205C290.247 60.5646 291.048 59.141 292.232 58.1495C293.416 57.1259 294.825 56.6145 296.457 56.6152C297.353 56.6155 298.185 56.7599 298.953 57.0482C299.72 57.3365 300.456 57.6728 301.16 58.0571C301.864 58.4414 302.536 58.7776 303.176 59.0659C303.848 59.3542 304.504 59.4984 305.144 59.4987C305.88 59.499 306.488 59.3392 306.968 59.0194C307.448 58.6676 307.784 58.2198 307.976 57.6758C308.2 57.1959 308.457 56.828 308.745 56.5722C309.065 56.3163 309.465 56.2204 309.945 56.2846C310.553 56.3169 311.017 56.5091 311.337 56.8612C311.656 57.2133 311.752 57.7094 311.624 58.3493C311.239 60.2052 310.455 61.6448 309.27 62.6684C308.118 63.6599 306.71 64.1553 305.046 64.1547C304.15 64.1543 303.302 64.0099 302.502 63.7216C301.734 63.4333 300.998 63.097 300.294 62.7127C299.59 62.3284 298.902 61.9922 298.231 61.7039C297.591 61.4156 296.951 61.2714 296.311 61.2711C295.607 61.2708 294.999 61.4466 294.487 61.7984C294.006 62.1182 293.67 62.55 293.478 63.094C293.254 63.5419 292.998 63.8938 292.71 64.1496C292.422 64.4055 292.021 64.5174 291.509 64.4852ZM337.062 101.656C333.734 101.654 330.806 100.933 328.279 99.4921C325.784 98.0191 323.832 95.9703 322.426 93.3457C321.051 90.7212 320.364 87.6649 320.365 84.1769C320.366 81.5209 320.751 79.137 321.52 77.0253C322.321 74.8817 323.458 73.0581 324.93 71.5547C326.403 70.0193 328.163 68.836 330.212 68.0049C332.292 67.1737 334.58 66.7586 337.076 66.7597C340.468 66.761 343.412 67.4822 345.907 68.9232C348.403 70.3642 350.338 72.397 351.713 75.0216C353.12 77.6142 353.823 80.6544 353.821 84.1424C353.82 86.7984 353.419 89.1983 352.618 91.342C351.817 93.4856 350.681 95.3252 349.208 96.8606C347.735 98.396 345.975 99.5793 343.927 100.41C341.878 101.242 339.59 101.657 337.062 101.656ZM337.065 95.3197C338.953 95.3204 340.553 94.8891 341.865 94.0256C343.21 93.1301 344.234 91.8506 344.939 90.1868C345.675 88.4911 346.044 86.4913 346.045 84.1873C346.047 80.6673 345.264 77.947 343.697 76.0263C342.129 74.0737 339.922 73.0968 337.074 73.0956C335.218 73.0949 333.618 73.5262 332.273 74.3897C330.929 75.2532 329.904 76.5167 329.2 78.1805C328.495 79.8442 328.142 81.844 328.141 84.18C328.14 87.668 328.923 90.4043 330.49 92.389C332.057 94.3416 334.249 95.3185 337.065 95.3197ZM376.768 101.576C375.552 101.575 374.608 101.239 373.936 100.567C373.296 99.8944 372.977 98.9182 372.977 97.6382L372.988 71.1902C372.988 69.9422 373.325 68.9824 373.997 68.3106C374.669 67.6389 375.629 67.3033 376.877 67.3038L393.293 67.3105C394.253 67.3109 394.973 67.5671 395.453 68.0793C395.965 68.5595 396.221 69.2637 396.22 70.1917C396.22 71.1517 395.964 71.8875 395.451 72.3993C394.971 72.8791 394.251 73.1189 393.291 73.1185L380.427 73.1132L380.424 81.3692L392.232 81.374C393.192 81.3744 393.928 81.6307 394.439 82.1429C394.951 82.6231 395.207 83.3272 395.207 84.2552C395.206 85.1832 394.95 85.9031 394.438 86.4149C393.926 86.9267 393.189 87.1824 392.229 87.182L380.421 87.1772L380.417 97.6412C380.416 100.265 379.2 101.577 376.768 101.576ZM404.095 101.587C402.879 101.586 401.951 101.25 401.311 100.578C400.671 99.9055 400.352 98.9613 400.352 97.7453L400.363 70.7213C400.364 69.5053 400.684 68.5615 401.324 67.8897C401.965 67.218 402.893 66.8824 404.109 66.8829C405.293 66.8833 406.205 67.2197 406.844 67.892C407.484 68.5642 407.804 69.5084 407.803 70.7244L407.792 97.7484C407.792 98.9644 407.471 99.9082 406.831 100.58C406.223 101.252 405.311 101.587 404.095 101.587ZM418.057 101.593C416.937 101.592 416.073 101.288 415.465 100.679C414.889 100.039 414.602 99.1431 414.602 97.9911L414.613 70.6311C414.614 69.4151 414.902 68.4872 415.478 67.8475C416.087 67.2077 416.887 66.888 417.879 66.8884C418.743 66.8888 419.399 67.0651 419.846 67.4172C420.326 67.7374 420.87 68.2817 421.478 69.0499L438.317 90.5127L437.021 90.5122L437.029 70.4482C437.03 69.3282 437.318 68.4643 437.894 67.8566C438.503 67.2168 439.367 66.8972 440.487 66.8976C441.607 66.8981 442.455 67.2184 443.03 67.8587C443.638 68.4669 443.942 69.331 443.941 70.451L443.93 98.147C443.93 99.203 443.657 100.051 443.113 100.691C442.569 101.298 441.833 101.602 440.905 101.602C440.009 101.601 439.289 101.425 438.745 101.073C438.233 100.721 437.673 100.16 437.065 99.3922L420.274 77.9294L421.522 77.9299L421.514 97.9939C421.514 99.1459 421.225 100.042 420.649 100.682C420.073 101.289 419.209 101.593 418.057 101.593ZM451.701 101.606C450.805 101.606 450.069 101.398 449.493 100.981C448.95 100.565 448.598 100.005 448.438 99.3008C448.31 98.5968 448.455 97.8129 448.871 96.949L461.17 70.026C461.682 68.9382 462.291 68.1545 462.995 67.6748C463.699 67.163 464.515 66.9074 465.443 66.9077C466.371 66.9081 467.187 67.1645 467.891 67.6767C468.595 68.157 469.186 68.9413 469.666 70.0295L482.039 96.9625C482.455 97.8267 482.598 98.6267 482.47 99.3627C482.374 100.067 482.054 100.626 481.509 101.042C480.965 101.426 480.261 101.618 479.397 101.617C478.309 101.617 477.461 101.361 476.853 100.848C476.278 100.336 475.766 99.5359 475.318 98.4478L472.441 91.7746L475.416 93.8398L455.4 93.8317L458.377 91.7689L455.542 98.4397C455.062 99.5595 454.55 100.375 454.005 100.887C453.493 101.367 452.725 101.607 451.701 101.606ZM465.344 75.2597L459.194 89.8972L457.899 88.0247L472.923 88.0308L471.626 89.9023L465.44 75.2597L465.344 75.2597ZM490.338 101.622C489.218 101.621 488.354 101.317 487.746 100.709C487.17 100.069 486.883 99.1725 486.883 98.0205L486.894 70.6605C486.895 69.4445 487.183 68.5166 487.76 67.8768C488.368 67.237 489.168 66.9174 490.16 66.9178C491.024 66.9181 491.68 67.0944 492.128 67.4466C492.608 67.7668 493.151 68.311 493.759 69.0792L510.598 90.5421L509.302 90.5415L509.31 70.4775C509.311 69.3575 509.599 68.4937 510.176 67.8859C510.784 67.2461 511.648 66.9265 512.768 66.9269C513.888 66.9274 514.736 67.2477 515.312 67.888C515.919 68.4962 516.223 69.3604 516.222 70.4804L516.211 98.1764C516.211 99.2324 515.938 100.08 515.394 100.72C514.85 101.328 514.114 101.632 513.186 101.631C512.29 101.631 511.57 101.454 511.026 101.102C510.514 100.75 509.954 100.19 509.347 99.4216L492.555 77.9587L493.803 77.9593L493.795 98.0233C493.795 99.1753 493.506 100.071 492.93 100.711C492.354 101.319 491.49 101.622 490.338 101.622ZM539.438 101.738C535.79 101.736 532.671 101.015 530.079 99.574C527.488 98.1329 525.489 96.1161 524.082 93.5235C522.707 90.899 522.02 87.8107 522.021 84.2587C522.023 81.6027 522.408 79.2189 523.176 77.1072C523.977 74.9635 525.13 73.14 526.635 71.6366C528.139 70.1012 529.964 68.9179 532.108 68.0868C534.284 67.2557 536.733 66.8407 539.453 66.8418C541.053 66.8424 542.668 67.0511 544.3 67.4677C545.964 67.8524 547.404 68.413 548.62 69.1495C549.419 69.5978 549.963 70.158 550.251 70.8302C550.539 71.5023 550.618 72.1743 550.49 72.8463C550.394 73.5182 550.122 74.0941 549.673 74.5739C549.257 75.0538 548.729 75.3575 548.089 75.4853C547.449 75.613 546.729 75.4687 545.929 75.0524C544.969 74.476 543.962 74.0596 542.906 73.8032C541.85 73.5468 540.778 73.4183 539.69 73.4179C537.546 73.417 535.738 73.8483 534.265 74.7117C532.825 75.5431 531.737 76.7587 531 78.3584C530.263 79.9581 529.894 81.9259 529.893 84.2619C529.893 86.5659 530.26 88.5341 530.995 90.1664C531.73 91.7986 532.818 93.0471 534.258 93.9117C535.729 94.7443 537.537 95.161 539.681 95.1619C540.705 95.1623 541.745 95.0347 542.801 94.7791C543.889 94.5236 544.929 94.124 545.922 93.5804C546.754 93.1647 547.49 93.021 548.13 93.1493C548.802 93.2456 549.346 93.5338 549.762 94.014C550.209 94.4621 550.481 95.0063 550.577 95.6463C550.705 96.2864 550.64 96.9263 550.384 97.5662C550.128 98.2061 549.648 98.7499 548.943 99.1976C547.759 99.9972 546.303 100.621 544.575 101.068C542.846 101.515 541.134 101.738 539.438 101.738ZM559.723 101.218C558.475 101.218 557.515 100.881 556.844 100.209C556.172 99.5366 555.836 98.5764 555.837 97.3284L555.847 71.2644C555.848 70.0164 556.184 69.0566 556.856 68.3848C557.529 67.7131 558.489 67.3775 559.737 67.378L576.489 67.3848C577.449 67.3852 578.169 67.6415 578.649 68.1537C579.16 68.6339 579.416 69.338 579.416 70.266C579.415 71.226 579.159 71.9619 578.647 72.4737C578.167 72.9535 577.446 73.1932 576.486 73.1928L562.95 73.1873L562.947 81.1073L575.379 81.1124C576.371 81.1128 577.107 81.3691 577.587 81.8813C578.099 82.3615 578.354 83.0816 578.354 84.0416C578.354 85.0016 578.097 85.7375 577.585 86.2493C577.105 86.7291 576.369 86.9688 575.377 86.9684L562.945 86.9633L562.941 95.4113L576.477 95.4168C577.437 95.4172 578.157 95.6735 578.637 96.1857C579.149 96.6659 579.405 97.37 579.404 98.298C579.404 99.258 579.148 99.9939 578.635 100.506C578.155 100.985 577.435 101.225 576.475 101.225L559.723 101.218ZM588.641 101.662C587.425 101.661 586.498 101.325 585.858 100.653C585.218 99.9804 584.898 99.0362 584.899 97.8202L584.91 70.7962C584.91 69.5802 585.231 68.6364 585.871 67.9646C586.511 67.2929 587.44 66.9573 588.656 66.9577C589.84 66.9582 590.751 67.2946 591.391 67.9669C592.031 68.6391 592.35 69.5832 592.35 70.7992L592.339 97.8232C592.338 99.0392 592.018 99.9831 591.378 100.655C590.77 101.327 589.857 101.662 588.641 101.662ZM602.891 101.668C601.675 101.667 600.748 101.331 600.108 100.658C599.468 99.9861 599.148 99.042 599.149 97.826L599.16 71.186C599.16 69.938 599.481 68.9941 600.121 68.3544C600.793 67.7147 601.737 67.3951 602.953 67.3955L614.617 67.4003C618.393 67.4018 621.305 68.315 623.352 70.1398C625.399 71.9647 626.422 74.5091 626.421 77.7731C626.42 79.8851 625.956 81.7089 625.027 83.2445C624.098 84.7801 622.754 85.9636 620.993 86.7949C619.265 87.6262 617.137 88.0413 614.609 88.0403L614.993 87.2244L616.961 87.2252C618.305 87.2258 619.473 87.5623 620.465 88.2347C621.489 88.8751 622.368 89.8674 623.104 91.2117L626.077 96.7329C626.525 97.5331 626.733 98.3172 626.7 99.0852C626.668 99.8532 626.38 100.477 625.836 100.957C625.292 101.437 624.491 101.676 623.435 101.676C622.379 101.675 621.516 101.451 620.844 101.003C620.204 100.555 619.628 99.8663 619.117 98.9381L614.512 90.4402C614.032 89.544 613.441 88.9358 612.737 88.6155C612.065 88.2953 611.233 88.1349 610.241 88.1345L606.593 88.133L606.589 97.829C606.588 99.045 606.268 99.9889 605.628 100.661C605.02 101.332 604.107 101.668 602.891 101.668ZM606.595 82.757L613.267 82.7597C615.251 82.7605 616.739 82.3611 617.732 81.5615C618.756 80.762 619.268 79.5622 619.269 77.9622C619.27 76.3942 618.758 75.21 617.734 74.4096C616.743 73.6091 615.255 73.2085 613.271 73.2077L606.599 73.205L606.595 82.757ZM632.873 101.68C631.977 101.679 631.241 101.471 630.665 101.055C630.121 100.639 629.77 100.078 629.61 99.3744C629.482 98.6703 629.627 97.8864 630.043 97.0225L642.342 70.0995C642.854 69.0117 643.463 68.228 644.167 67.7483C644.871 67.2366 645.687 66.9809 646.615 66.9813C647.543 66.9816 648.359 67.238 649.063 67.7503C649.767 68.2305 650.358 69.0148 650.838 70.103L663.211 97.036C663.627 97.9002 663.77 98.7002 663.642 99.4362C663.546 100.14 663.225 100.7 662.681 101.116C662.137 101.5 661.433 101.691 660.569 101.691C659.481 101.69 658.633 101.434 658.025 100.922C657.45 100.41 656.938 99.6095 656.49 98.5213L653.613 91.8481L656.588 93.9133L636.572 93.9052L639.549 91.8424L636.714 98.5133C636.234 99.6331 635.722 100.449 635.177 100.961C634.665 101.44 633.897 101.68 632.873 101.68ZM646.516 75.3332L640.366 89.9707L639.071 88.0982L654.095 88.1043L652.798 89.9758L646.612 75.3333L646.516 75.3332ZM672.785 90.7999C672.081 90.7996 671.521 90.5754 671.105 90.1272C670.721 89.6471 670.53 89.007 670.53 88.207C670.53 87.279 670.643 86.415 670.867 85.6151C671.091 84.7832 671.444 83.9513 671.924 83.1195C672.436 82.2878 673.109 81.44 673.941 80.5764C674.517 79.9046 674.982 79.3288 675.334 78.8489C675.718 78.3371 675.974 77.8572 676.102 77.4092C676.263 76.9293 676.343 76.4493 676.343 75.9693C676.343 75.0733 676.008 74.3692 675.336 73.8569C674.696 73.3447 673.768 73.0883 672.552 73.0878C671.4 73.0873 670.328 73.2309 669.336 73.5185C668.376 73.8061 667.432 74.2217 666.503 74.7653C665.671 75.213 664.919 75.3887 664.247 75.2924C663.607 75.1642 663.095 74.876 662.712 74.4278C662.328 73.9476 662.104 73.3876 662.04 72.7475C661.977 72.1075 662.121 71.4836 662.473 70.8757C662.825 70.2358 663.418 69.6761 664.25 69.1964C665.562 68.429 667.018 67.8535 668.618 67.4702C670.219 67.0868 671.707 66.8955 673.083 66.896C675.195 66.8969 677.051 67.2496 678.65 67.9543C680.25 68.6589 681.482 69.6194 682.345 70.8358C683.241 72.0521 683.688 73.4763 683.687 75.1083C683.687 76.1003 683.543 77.0283 683.254 77.8921C682.966 78.756 682.502 79.6198 681.861 80.4836C681.221 81.3153 680.34 82.195 679.22 83.1225C678.228 83.9541 677.443 84.7058 676.867 85.3775C676.291 86.0173 675.875 86.6411 675.618 87.249C675.362 87.8249 675.186 88.4489 675.09 89.1208C674.993 89.6008 674.753 90.0007 674.369 90.3205C674.017 90.6404 673.489 90.8002 672.785 90.7999ZM672.685 101.504C671.405 101.503 670.381 101.119 669.613 100.351C668.877 99.5823 668.51 98.5902 668.51 97.3742C668.511 96.1902 668.879 95.2303 669.615 94.4946C670.384 93.7269 671.408 93.3433 672.688 93.3439C673.968 93.3444 674.96 93.7288 675.663 94.4971C676.399 95.2334 676.767 96.1935 676.766 97.3775C676.766 98.5935 676.397 99.5854 675.661 100.353C674.957 101.121 673.965 101.504 672.685 101.504ZM253.412 166.526C252.196 166.525 251.268 166.189 250.628 165.517C249.989 164.844 249.669 163.9 249.67 162.684L249.68 136.044C249.681 134.796 250.001 133.852 250.641 133.213C251.314 132.573 252.258 132.253 253.474 132.254L265.138 132.258C268.914 132.26 271.825 133.221 273.873 135.142C275.92 137.031 276.943 139.671 276.941 143.063C276.94 146.455 275.915 149.111 273.866 151.03C271.817 152.949 268.905 153.908 265.129 153.906L257.113 153.903L257.11 162.687C257.109 163.903 256.789 164.847 256.148 165.519C255.54 166.191 254.628 166.526 253.412 166.526ZM257.115 148.143L263.883 148.146C265.803 148.147 267.26 147.715 268.252 146.852C269.276 145.988 269.789 144.724 269.789 143.06C269.79 141.396 269.279 140.148 268.255 139.316C267.263 138.483 265.807 138.067 263.887 138.066L257.119 138.063L257.115 148.143ZM278.94 166.536C278.044 166.536 277.309 166.327 276.733 165.911C276.189 165.495 275.837 164.935 275.677 164.231C275.55 163.527 275.694 162.743 276.11 161.879L288.409 134.956C288.922 133.868 289.53 133.084 290.234 132.605C290.938 132.093 291.755 131.837 292.683 131.838C293.611 131.838 294.426 132.094 295.13 132.607C295.834 133.087 296.426 133.871 296.905 134.959L309.278 161.892C309.694 162.757 309.838 163.557 309.709 164.293C309.613 164.997 309.293 165.556 308.749 165.972C308.205 166.356 307.5 166.548 306.636 166.547C305.548 166.547 304.701 166.291 304.093 165.778C303.517 165.266 303.005 164.466 302.558 163.378L299.68 156.704L302.656 158.77L282.64 158.762L285.616 156.699L282.782 163.37C282.301 164.489 281.789 165.305 281.245 165.817C280.733 166.297 279.964 166.536 278.94 166.536ZM292.583 140.19L286.433 154.827L285.138 152.955L300.162 152.961L298.865 154.832L292.679 140.19L292.583 140.19ZM317.865 166.552C316.649 166.551 315.721 166.215 315.081 165.543C314.442 164.87 314.122 163.926 314.123 162.71L314.133 136.07C314.134 134.822 314.454 133.878 315.095 133.239C315.767 132.599 316.711 132.279 317.927 132.28L329.591 132.285C333.367 132.286 336.279 133.199 338.326 135.024C340.373 136.849 341.396 139.393 341.395 142.657C341.394 144.769 340.929 146.593 340.001 148.129C339.072 149.664 337.727 150.848 335.967 151.679C334.239 152.511 332.111 152.926 329.583 152.925L329.967 152.109L331.935 152.11C333.279 152.11 334.447 152.447 335.439 153.119C336.462 153.759 337.342 154.752 338.077 156.096L341.051 161.617C341.499 162.417 341.706 163.202 341.674 163.97C341.642 164.738 341.354 165.361 340.809 165.841C340.265 166.321 339.465 166.561 338.409 166.56C337.353 166.56 336.489 166.335 335.817 165.887C335.178 165.439 334.602 164.751 334.09 163.822L329.486 155.325C329.006 154.428 328.414 153.82 327.71 153.5C327.038 153.18 326.207 153.019 325.215 153.019L321.567 153.017L321.563 162.713C321.562 163.929 321.242 164.873 320.601 165.545C319.993 166.217 319.081 166.552 317.865 166.552ZM321.569 147.641L328.241 147.644C330.225 147.645 331.713 147.245 332.705 146.446C333.73 145.646 334.242 144.447 334.243 142.847C334.243 141.279 333.732 140.094 332.708 139.294C331.716 138.493 330.229 138.093 328.245 138.092L321.573 138.089L321.569 147.641ZM347.847 166.564C346.951 166.564 346.215 166.355 345.639 165.939C345.095 165.523 344.743 164.963 344.584 164.259C344.456 163.555 344.6 162.771 345.017 161.907L357.316 134.984C357.828 133.896 358.436 133.112 359.14 132.633C359.845 132.121 360.661 131.865 361.589 131.866C362.517 131.866 363.333 132.122 364.036 132.635C364.74 133.115 365.332 133.899 365.812 134.987L378.185 161.92C378.6 162.785 378.744 163.585 378.616 164.321C378.519 165.024 378.199 165.584 377.655 166C377.111 166.384 376.407 166.576 375.543 166.575C374.455 166.575 373.607 166.318 372.999 165.806C372.423 165.294 371.912 164.494 371.464 163.406L368.587 156.732L371.562 158.798L351.546 158.79L354.523 156.727L351.688 163.398C351.208 164.517 350.695 165.333 350.151 165.845C349.639 166.325 348.871 166.564 347.847 166.564ZM361.489 140.218L355.339 154.855L354.044 152.983L369.068 152.989L367.771 154.86L361.585 140.218L361.489 140.218ZM425.856 171.012C426.367 171.844 426.559 172.596 426.431 173.268C426.303 173.972 425.982 174.548 425.47 174.996C424.958 175.475 424.334 175.779 423.598 175.907C422.894 176.034 422.174 175.954 421.438 175.666C420.734 175.41 420.126 174.897 419.615 174.129L416.209 168.56C415.793 167.92 415.249 167.439 414.577 167.119C413.937 166.831 413.106 166.687 412.082 166.686L417.746 164.528C419.218 164.529 420.418 164.785 421.346 165.298C422.306 165.81 423.17 166.691 423.937 167.939L425.856 171.012ZM412.13 166.686C408.802 166.685 405.874 165.964 403.346 164.523C400.851 163.05 398.9 161.001 397.493 158.376C396.118 155.752 395.431 152.695 395.433 149.207C395.434 146.551 395.819 144.167 396.588 142.056C397.388 139.912 398.525 138.089 399.998 136.585C401.47 135.05 403.231 133.867 405.279 133.035C407.36 132.204 409.648 131.789 412.144 131.79C415.536 131.791 418.479 132.513 420.975 133.954C423.47 135.395 425.405 137.428 426.78 140.052C428.187 142.645 428.89 145.685 428.889 149.173C428.888 151.829 428.487 154.229 427.686 156.372C426.885 158.516 425.748 160.356 424.275 161.891C422.803 163.426 421.042 164.61 418.994 165.441C416.946 166.272 414.658 166.687 412.13 166.686ZM412.132 160.35C414.02 160.351 415.62 159.92 416.933 159.056C418.277 158.161 419.302 156.881 420.006 155.217C420.743 153.522 421.112 151.522 421.113 149.218C421.114 145.698 420.331 142.977 418.764 141.057C417.197 139.104 414.989 138.127 412.141 138.126C410.285 138.125 408.685 138.557 407.341 139.42C405.996 140.284 404.972 141.547 404.267 143.211C403.562 144.875 403.21 146.874 403.209 149.21C403.207 152.698 403.99 155.435 405.557 157.419C407.124 159.372 409.316 160.349 412.132 160.35ZM449.133 166.701C446.733 166.7 444.605 166.395 442.749 165.787C440.925 165.146 439.39 164.217 438.142 163.001C436.895 161.784 435.951 160.264 435.312 158.44C434.705 156.583 434.402 154.439 434.403 152.007L434.409 135.687C434.41 134.439 434.73 133.495 435.37 132.856C436.011 132.216 436.939 131.896 438.155 131.897C439.339 131.897 440.251 132.218 440.89 132.858C441.53 133.498 441.85 134.442 441.849 135.69L441.843 152.058C441.841 154.81 442.465 156.89 443.712 158.299C444.959 159.675 446.767 160.364 449.135 160.365C451.503 160.366 453.295 159.679 454.512 158.303C455.761 156.896 456.385 154.816 456.387 152.064L456.393 135.696C456.394 134.448 456.714 133.504 457.354 132.864C457.995 132.225 458.907 131.905 460.091 131.906C461.275 131.906 462.171 132.226 462.778 132.867C463.418 133.507 463.738 134.451 463.737 135.699L463.731 152.019C463.729 155.251 463.168 157.971 462.047 160.178C460.958 162.354 459.326 163.985 457.149 165.072C455.005 166.16 452.333 166.702 449.133 166.701ZM474.197 166.183C472.949 166.183 471.989 165.846 471.317 165.174C470.645 164.502 470.31 163.542 470.31 162.294L470.321 136.23C470.321 134.982 470.658 134.022 471.33 133.35C472.002 132.678 472.962 132.343 474.21 132.343L490.962 132.35C491.922 132.35 492.642 132.607 493.122 133.119C493.634 133.599 493.89 134.303 493.889 135.231C493.889 136.191 493.633 136.927 493.12 137.439C492.64 137.919 491.92 138.158 490.96 138.158L477.424 138.153L477.421 146.073L489.853 146.078C490.845 146.078 491.581 146.334 492.061 146.847C492.572 147.327 492.828 148.047 492.828 149.007C492.827 149.967 492.571 150.703 492.059 151.215C491.579 151.694 490.843 151.934 489.851 151.934L477.419 151.929L477.415 160.377L490.951 160.382C491.911 160.382 492.631 160.639 493.111 161.151C493.623 161.631 493.878 162.335 493.878 163.263C493.878 164.223 493.621 164.959 493.109 165.471C492.629 165.951 491.909 166.19 490.949 166.19L474.197 166.183ZM507.43 155.733C506.726 155.733 506.167 155.508 505.751 155.06C505.367 154.58 505.175 153.94 505.176 153.14C505.176 152.212 505.288 151.348 505.513 150.548C505.737 149.716 506.089 148.884 506.57 148.052C507.082 147.221 507.754 146.373 508.587 145.509C509.163 144.837 509.627 144.262 509.979 143.782C510.364 143.27 510.62 142.79 510.748 142.342C510.908 141.862 510.988 141.382 510.988 140.902C510.989 140.006 510.653 139.302 509.981 138.79C509.342 138.278 508.414 138.021 507.198 138.021C506.046 138.02 504.974 138.164 503.981 138.451C503.021 138.739 502.077 139.155 501.149 139.698C500.317 140.146 499.565 140.322 498.893 140.225C498.253 140.097 497.741 139.809 497.357 139.361C496.973 138.881 496.75 138.32 496.686 137.68C496.622 137.04 496.766 136.416 497.119 135.809C497.471 135.169 498.063 134.609 498.895 134.129C500.208 133.362 501.664 132.786 503.264 132.403C504.864 132.02 506.352 131.828 507.728 131.829C509.84 131.83 511.696 132.183 513.296 132.887C514.895 133.592 516.127 134.552 516.991 135.769C517.886 136.985 518.334 138.409 518.333 140.041C518.332 141.033 518.188 141.961 517.9 142.825C517.611 143.689 517.147 144.553 516.507 145.416C515.866 146.248 514.986 147.128 513.866 148.055C512.873 148.887 512.089 149.639 511.513 150.31C510.936 150.95 510.52 151.574 510.264 152.182C510.008 152.758 509.831 153.382 509.735 154.054C509.639 154.534 509.399 154.934 509.015 155.253C508.663 155.573 508.134 155.733 507.43 155.733ZM507.33 166.437C506.05 166.436 505.026 166.052 504.259 165.284C503.523 164.515 503.155 163.523 503.156 162.307C503.156 161.123 503.525 160.163 504.261 159.428C505.029 158.66 506.053 158.276 507.333 158.277C508.613 158.277 509.605 158.662 510.309 159.43C511.045 160.166 511.412 161.126 511.412 162.31C511.411 163.526 511.043 164.518 510.307 165.286C509.602 166.054 508.61 166.437 507.33 166.437Z" fill="#F0F0EC"/>
<defs>
<filter id="filter0_i_256_78" x="34.3802" y="24.9434" width="34" height="34" filterUnits="userSpaceOnUse" color-interpolation-filters="sRGB">
<feFlood flood-opacity="0" result="BackgroundImageFix"/>
<feBlend mode="normal" in="SourceGraphic" in2="BackgroundImageFix" result="shape"/>
<feColorMatrix in="SourceAlpha" type="matrix" values="0 0 0 0 0 0 0 0 0 0 0 0 0 0 0 0 0 0 127 0" result="hardAlpha"/>
<feOffset dx="4" dy="4"/>
<feGaussianBlur stdDeviation="2"/>
<feComposite in2="hardAlpha" operator="arithmetic" k2="-1" k3="1"/>
<feColorMatrix type="matrix" values="0 0 0 0 0 0 0 0 0 0 0 0 0 0 0 0 0 0 0.25 0"/>
<feBlend mode="normal" in2="shape" result="effect1_innerShadow_256_78"/>
</filter>
</defs>
</svg>
