<svg width="175" height="49" viewBox="0 0 175 49" fill="none" xmlns="http://www.w3.org/2000/svg">
<g clip-path="url(#clip0_353_38)">
<path d="M72.4219 10.1445C74.6785 11.4474 76.5524 13.3212 77.8552 15.5778C79.158 17.8343 79.8438 20.3941 79.8438 22.9997C79.8438 25.6053 79.1579 28.1651 77.8551 30.4216C76.5522 32.6781 74.6784 34.552 72.4218 35.8548C70.1652 37.1576 67.6055 37.8434 64.9998 37.8434C62.3942 37.8433 59.8345 37.1574 57.578 35.8545C55.3214 34.5517 53.4476 32.6778 52.1448 30.4212C50.8421 28.1646 50.1563 25.6049 50.1563 22.9992L50.1637 22.5183C50.2469 19.9548 50.9928 17.4565 52.3289 15.2671C53.665 13.0777 55.5456 11.2719 57.7873 10.0256C60.0291 8.77938 62.5555 8.13529 65.1203 8.15613C67.6851 8.17697 70.2007 8.86204 72.4219 10.1445ZM65.0001 14.093C64.6064 14.093 64.2288 14.2494 63.9505 14.5277C63.6721 14.8061 63.5157 15.1837 63.5157 15.5774C62.3347 15.5774 61.202 16.0465 60.3669 16.8816C59.5317 17.7168 59.0626 18.8494 59.0626 20.0305C59.0626 21.2115 59.5317 22.3442 60.3669 23.1793C61.202 24.0144 62.3347 24.4836 63.5157 24.4836V27.4524C63.2695 27.466 63.0237 27.4193 62.7997 27.3163C62.5757 27.2134 62.3802 27.0573 62.2302 26.8616L62.1293 26.7117C61.9262 26.3841 61.6037 26.1484 61.23 26.0544C60.8562 25.9603 60.4606 26.0153 60.1267 26.2078C59.7928 26.4002 59.5468 26.7149 59.4407 27.0854C59.3346 27.4559 59.3768 27.8531 59.5584 28.1931C59.9372 28.8501 60.4776 29.3996 61.1284 29.7892C61.7791 30.1789 62.5186 30.3959 63.2767 30.4196H63.5157C63.5154 30.7834 63.6487 31.1347 63.8903 31.4067C64.132 31.6787 64.4651 31.8525 64.8264 31.8951L65.0001 31.9055C65.3938 31.9055 65.7713 31.7491 66.0497 31.4707C66.3281 31.1923 66.4844 30.8148 66.4844 30.4211L66.7457 30.4137C67.9029 30.3468 68.9885 29.8313 69.7717 28.9768C70.5548 28.1222 70.974 26.996 70.9399 25.8373C70.9059 24.6786 70.4215 23.5789 69.5895 22.7718C68.7575 21.9647 67.6436 21.5137 66.4844 21.5149V18.5461C67.0159 18.5283 67.4805 18.7539 67.7699 19.1369L67.8709 19.2868C68.0739 19.6143 68.3965 19.85 68.7702 19.9441C69.1439 20.0381 69.5396 19.9831 69.8735 19.7907C70.2074 19.5983 70.4534 19.2836 70.5594 18.9131C70.6655 18.5426 70.6233 18.1454 70.4418 17.8054C70.0631 17.148 69.5228 16.5983 68.872 16.2084C68.2213 15.8185 67.4817 15.6013 66.7234 15.5774H66.4844C66.4844 15.1837 66.3281 14.8061 66.0497 14.5277C65.7713 14.2494 65.3938 14.093 65.0001 14.093ZM66.4844 24.4836C66.8781 24.4836 67.2557 24.64 67.5341 24.9184C67.8124 25.1967 67.9688 25.5743 67.9688 25.968C67.9688 26.3617 67.8124 26.7392 67.5341 27.0176C67.2557 27.296 66.8781 27.4524 66.4844 27.4524V24.4836ZM63.5157 18.5461V21.5149C63.122 21.5149 62.7445 21.3585 62.4661 21.0801C62.1877 20.8017 62.0313 20.4242 62.0313 20.0305C62.0313 19.6368 62.1877 19.2592 62.4661 18.9809C62.7445 18.7025 63.122 18.5461 63.5157 18.5461Z" fill="#E6C300"/>
</g>
<path d="M12.412 36.324C11.5 36.324 10.804 36.072 10.324 35.568C9.844 35.064 9.604 34.356 9.604 33.444V15.228H3.232C2.488 15.228 1.912 15.024 1.504 14.616C1.096 14.208 0.892 13.644 0.892 12.924C0.892 12.18 1.096 11.616 1.504 11.232C1.912 10.824 2.488 10.62 3.232 10.62H21.556C22.3 10.62 22.876 10.824 23.284 11.232C23.692 11.616 23.896 12.18 23.896 12.924C23.896 13.644 23.692 14.208 23.284 14.616C22.876 15.024 22.3 15.228 21.556 15.228H15.184V33.444C15.184 34.356 14.944 35.064 14.464 35.568C14.008 36.072 13.324 36.324 12.412 36.324ZM29.1101 36.324C28.1981 36.324 27.5021 36.072 27.0221 35.568C26.5421 35.064 26.3021 34.356 26.3021 33.444V13.464C26.3021 12.528 26.5421 11.82 27.0221 11.34C27.5261 10.86 28.2341 10.62 29.1461 10.62H37.8941C40.7261 10.62 42.9101 11.304 44.4461 12.672C45.9821 14.04 46.7501 15.948 46.7501 18.396C46.7501 19.98 46.4021 21.348 45.7061 22.5C45.0101 23.652 44.0021 24.54 42.6821 25.164C41.3861 25.788 39.7901 26.1 37.8941 26.1L38.1821 25.488H39.6581C40.6661 25.488 41.5421 25.74 42.2861 26.244C43.0541 26.724 43.7141 27.468 44.2661 28.476L46.4981 32.616C46.8341 33.216 46.9901 33.804 46.9661 34.38C46.9421 34.956 46.7261 35.424 46.3181 35.784C45.9101 36.144 45.3101 36.324 44.5181 36.324C43.7261 36.324 43.0781 36.156 42.5741 35.82C42.0941 35.484 41.6621 34.968 41.2781 34.272L37.8221 27.9C37.4621 27.228 37.0181 26.772 36.4901 26.532C35.9861 26.292 35.3621 26.172 34.6181 26.172H31.8821V33.444C31.8821 34.356 31.6421 35.064 31.1621 35.568C30.7061 36.072 30.0221 36.324 29.1101 36.324ZM31.8821 22.14H36.8861C38.3741 22.14 39.4901 21.84 40.2341 21.24C41.0021 20.64 41.3861 19.74 41.3861 18.54C41.3861 17.364 41.0021 16.476 40.2341 15.876C39.4901 15.276 38.3741 14.976 36.8861 14.976H31.8821V22.14Z" fill="#F0F0EC"/>
<path d="M105.624 39.636C106.008 40.26 106.152 40.824 106.056 41.328C105.96 41.856 105.72 42.288 105.336 42.624C104.952 42.984 104.484 43.212 103.932 43.308C103.404 43.404 102.864 43.344 102.312 43.128C101.784 42.936 101.328 42.552 100.944 41.976L98.388 37.8C98.076 37.32 97.668 36.96 97.164 36.72C96.684 36.504 96.06 36.396 95.292 36.396L99.54 34.776C100.644 34.776 101.544 34.968 102.24 35.352C102.96 35.736 103.608 36.396 104.184 37.332L105.624 39.636ZM95.328 36.396C92.832 36.396 90.636 35.856 88.74 34.776C86.868 33.672 85.404 32.136 84.348 30.168C83.316 28.2 82.8 25.908 82.8 23.292C82.8 21.3 83.088 19.512 83.664 17.928C84.264 16.32 85.116 14.952 86.22 13.824C87.324 12.672 88.644 11.784 90.18 11.16C91.74 10.536 93.456 10.224 95.328 10.224C97.872 10.224 100.08 10.764 101.952 11.844C103.824 12.924 105.276 14.448 106.308 16.416C107.364 18.36 107.892 20.64 107.892 23.256C107.892 25.248 107.592 27.048 106.992 28.656C106.392 30.264 105.54 31.644 104.436 32.796C103.332 33.948 102.012 34.836 100.476 35.46C98.94 36.084 97.224 36.396 95.328 36.396ZM95.328 31.644C96.744 31.644 97.944 31.32 98.928 30.672C99.936 30 100.704 29.04 101.232 27.792C101.784 26.52 102.06 25.02 102.06 23.292C102.06 20.652 101.472 18.612 100.296 17.172C99.12 15.708 97.464 14.976 95.328 14.976C93.936 14.976 92.736 15.3 91.728 15.948C90.72 16.596 89.952 17.544 89.424 18.792C88.896 20.04 88.632 21.54 88.632 23.292C88.632 25.908 89.22 27.96 90.396 29.448C91.572 30.912 93.216 31.644 95.328 31.644ZM123.08 36.396C121.28 36.396 119.684 36.168 118.292 35.712C116.924 35.232 115.772 34.536 114.836 33.624C113.9 32.712 113.192 31.572 112.712 30.204C112.256 28.812 112.028 27.204 112.028 25.38V13.14C112.028 12.204 112.268 11.496 112.748 11.016C113.228 10.536 113.924 10.296 114.836 10.296C115.724 10.296 116.408 10.536 116.888 11.016C117.368 11.496 117.608 12.204 117.608 13.14V25.416C117.608 27.48 118.076 29.04 119.012 30.096C119.948 31.128 121.304 31.644 123.08 31.644C124.856 31.644 126.2 31.128 127.112 30.096C128.048 29.04 128.516 27.48 128.516 25.416V13.14C128.516 12.204 128.756 11.496 129.236 11.016C129.716 10.536 130.4 10.296 131.288 10.296C132.176 10.296 132.848 10.536 133.304 11.016C133.784 11.496 134.024 12.204 134.024 13.14V25.38C134.024 27.804 133.604 29.844 132.764 31.5C131.948 33.132 130.724 34.356 129.092 35.172C127.484 35.988 125.48 36.396 123.08 36.396ZM141.77 36.324C140.858 36.324 140.162 36.072 139.682 35.568C139.202 35.064 138.962 34.356 138.962 33.444V13.176C138.962 12.264 139.202 11.556 139.682 11.052C140.162 10.548 140.858 10.296 141.77 10.296C142.658 10.296 143.342 10.548 143.822 11.052C144.302 11.556 144.542 12.264 144.542 13.176V33.444C144.542 34.356 144.302 35.064 143.822 35.568C143.366 36.072 142.682 36.324 141.77 36.324ZM152.242 36.324C151.402 36.324 150.754 36.096 150.298 35.64C149.866 35.16 149.65 34.488 149.65 33.624V13.104C149.65 12.192 149.866 11.496 150.298 11.016C150.754 10.536 151.354 10.296 152.098 10.296C152.746 10.296 153.238 10.428 153.574 10.692C153.934 10.932 154.342 11.34 154.798 11.916L167.434 28.008H166.462V12.96C166.462 12.12 166.678 11.472 167.11 11.016C167.566 10.536 168.214 10.296 169.054 10.296C169.894 10.296 170.53 10.536 170.962 11.016C171.418 11.472 171.646 12.12 171.646 12.96V33.732C171.646 34.524 171.442 35.16 171.034 35.64C170.626 36.096 170.074 36.324 169.378 36.324C168.706 36.324 168.166 36.192 167.758 35.928C167.374 35.664 166.954 35.244 166.498 34.668L153.898 18.576H154.834V33.624C154.834 34.488 154.618 35.16 154.186 35.64C153.754 36.096 153.106 36.324 152.242 36.324Z" fill="#F0F0EC"/>
<defs>
<clipPath id="clip0_353_38">
<rect width="30" height="30" fill="white" transform="translate(50 8)"/>
</clipPath>
</defs>
</svg>
