<svg width="30" height="30" viewBox="0 0 30 30" fill="none" xmlns="http://www.w3.org/2000/svg">
<g clip-path="url(#clip0_353_40)">
<path d="M22.4219 2.14454C24.6785 3.44736 26.5524 5.32122 27.8552 7.57777C29.158 9.83433 29.8438 12.3941 29.8438 14.9997C29.8438 17.6053 29.1579 20.1651 27.8551 22.4216C26.5522 24.6781 24.6784 26.552 22.4218 27.8548C20.1652 29.1576 17.6055 29.8434 14.9998 29.8434C12.3942 29.8433 9.83448 29.1574 7.57796 27.8545C5.32143 26.5517 3.44762 24.6778 2.14485 22.4212C0.842078 20.1646 0.15626 17.6049 0.156326 14.9992L0.163748 14.5183C0.246878 11.9548 0.992842 9.45652 2.32892 7.26711C3.66499 5.0777 5.54558 3.27185 7.78734 2.02562C10.0291 0.779382 12.5555 0.135288 15.1203 0.15613C17.6851 0.176972 20.2007 0.862039 22.4219 2.14454ZM15.0001 6.09298C14.6064 6.09298 14.2288 6.24937 13.9505 6.52774C13.6721 6.80612 13.5157 7.18367 13.5157 7.57736C12.3347 7.57736 11.202 8.04652 10.3669 8.88165C9.53174 9.71677 9.06258 10.8494 9.06258 12.0305C9.06258 13.2115 9.53174 14.3442 10.3669 15.1793C11.202 16.0144 12.3347 16.4836 13.5157 16.4836V19.4524C13.2695 19.466 13.0237 19.4193 12.7997 19.3163C12.5757 19.2134 12.3802 19.0573 12.2302 18.8616L12.1293 18.7117C11.9262 18.3841 11.6037 18.1484 11.23 18.0544C10.8562 17.9603 10.4606 18.0153 10.1267 18.2078C9.79276 18.4002 9.54676 18.7149 9.4407 19.0854C9.33464 19.4559 9.37684 19.8531 9.55836 20.1931C9.93723 20.8501 10.4776 21.3996 11.1284 21.7892C11.7791 22.1789 12.5186 22.3959 13.2767 22.4196H13.5157C13.5154 22.7834 13.6487 23.1347 13.8903 23.4067C14.132 23.6787 14.4651 23.8525 14.8264 23.8951L15.0001 23.9055C15.3938 23.9055 15.7713 23.7491 16.0497 23.4707C16.3281 23.1923 16.4844 22.8148 16.4844 22.4211L16.7457 22.4137C17.9029 22.3468 18.9885 21.8313 19.7717 20.9768C20.5548 20.1222 20.974 18.996 20.9399 17.8373C20.9059 16.6786 20.4215 15.5789 19.5895 14.7718C18.7575 13.9647 17.6436 13.5137 16.4844 13.5149V10.5461C17.0159 10.5283 17.4805 10.7539 17.7699 11.1369L17.8709 11.2868C18.0739 11.6143 18.3965 11.85 18.7702 11.9441C19.1439 12.0381 19.5396 11.9831 19.8735 11.7907C20.2074 11.5983 20.4534 11.2836 20.5594 10.9131C20.6655 10.5426 20.6233 10.1454 20.4418 9.8054C20.0631 9.14805 19.5228 8.59833 18.872 8.2084C18.2213 7.81847 17.4817 7.60126 16.7234 7.57736H16.4844C16.4844 7.18367 16.3281 6.80612 16.0497 6.52774C15.7713 6.24937 15.3938 6.09298 15.0001 6.09298ZM16.4844 16.4836C16.8781 16.4836 17.2557 16.64 17.5341 16.9184C17.8124 17.1967 17.9688 17.5743 17.9688 17.968C17.9688 18.3617 17.8124 18.7392 17.5341 19.0176C17.2557 19.296 16.8781 19.4524 16.4844 19.4524V16.4836ZM13.5157 10.5461V13.5149C13.122 13.5149 12.7445 13.3585 12.4661 13.0801C12.1877 12.8017 12.0313 12.4242 12.0313 12.0305C12.0313 11.6368 12.1877 11.2592 12.4661 10.9809C12.7445 10.7025 13.122 10.5461 13.5157 10.5461Z" fill="#E6C300"/>
</g>
<defs>
<clipPath id="clip0_353_40">
<rect width="30" height="30" fill="white"/>
</clipPath>
</defs>
</svg>
